<svg xmlns="http://www.w3.org/2000/svg" xmlns:xlink="http://www.w3.org/1999/xlink" width="128" zoomAndPan="magnify" viewBox="0 0 96 95.999999" height="128" preserveAspectRatio="xMidYMid meet" version="1.0"><defs><clipPath id="id1"><path d="M 17.335938 8 L 78.757812 8 L 78.757812 88.25 L 17.335938 88.25 Z M 17.335938 8 " clip-rule="nonzero"/></clipPath><clipPath id="id2"><path d="M 17.300781 8 L 73 8 L 73 82 L 17.300781 82 Z M 17.300781 8 " clip-rule="nonzero"/></clipPath><clipPath id="id3"><path d="M 31 61 L 43 61 L 43 88.25 L 31 88.25 Z M 31 61 " clip-rule="nonzero"/></clipPath><clipPath id="id4"><path d="M 55.835938 8 L 78.757812 8 L 78.757812 88.25 L 55.835938 88.25 Z M 55.835938 8 " clip-rule="nonzero"/></clipPath></defs><g clip-path="url(#id1)"><path fill="#412c1e" d="M 51.171875 26.902344 L 57.300781 54.148438 L 45.042969 54.148438 L 51.171875 26.902344 M 42.011719 67.613281 L 60.332031 67.613281 L 58.726562 81.988281 L 64.976562 88.25 L 78.757812 88.25 L 62.109375 14.257812 L 55.863281 8 L 40.234375 14.257812 L 17.335938 81.988281 L 23.585938 88.25 L 37.367188 88.25 L 42.011719 67.613281 " fill-opacity="1" fill-rule="nonzero"/></g><g clip-path="url(#id2)"><path fill="#f6f2d9" d="M 44.921875 20.644531 L 51.050781 47.886719 L 38.792969 47.886719 L 44.921875 20.644531 M 35.757812 61.351562 L 54.082031 61.351562 L 58.726562 81.988281 L 72.503906 81.988281 L 55.863281 8 L 33.988281 8 L 17.335938 81.988281 L 31.117188 81.988281 L 35.757812 61.351562 " fill-opacity="1" fill-rule="nonzero"/></g><path fill="#cac2bb" d="M 36.296875 49.890625 L 53.550781 49.890625 L 46.398438 18.449219 L 43.519531 18.449219 L 36.296875 49.890625 M 60.324219 79.988281 L 55.679688 59.351562 L 34.164062 59.351562 L 29.523438 79.988281 L 19.835938 79.988281 L 35.582031 10 L 54.261719 10 L 70.011719 79.988281 L 60.324219 79.988281 " fill-opacity="1" fill-rule="nonzero"/><g clip-path="url(#id3)"><path fill="#bf673f" d="M 31.117188 81.988281 L 37.367188 88.25 L 42.011719 67.613281 L 35.757812 61.351562 L 31.117188 81.988281 " fill-opacity="1" fill-rule="nonzero"/></g><g clip-path="url(#id4)"><path fill="#bf673f" d="M 72.503906 81.988281 L 78.757812 88.25 L 62.109375 14.257812 L 55.863281 8 L 72.503906 81.988281 " fill-opacity="1" fill-rule="nonzero"/></g><path fill="#bf673f" d="M 44.921875 20.644531 L 48.8125 37.910156 L 46.515625 47.832031 L 38.792969 47.832031 L 44.921875 20.644531 " fill-opacity="1" fill-rule="nonzero"/><path fill="#aaa498" d="M 23.539062 79.988281 L 19.835938 79.988281 L 35.582031 10 L 54.261719 10 L 54.984375 13.214844 L 38.5625 13.214844 L 23.539062 79.988281 " fill-opacity="1" fill-rule="nonzero"/><path fill="#aaa498" d="M 56.53125 53.105469 L 39.277344 53.105469 L 37.617188 51.429688 L 53.550781 49.890625 L 47.605469 19.460938 L 49.03125 20.449219 L 56.53125 53.105469 " fill-opacity="1" fill-rule="nonzero"/><path fill="#c3b89f" d="M 62.582031 79.988281 L 60.324219 79.988281 L 57.003906 60.898438 L 58.664062 62.570312 L 62.582031 79.988281 " fill-opacity="1" fill-rule="nonzero"/><path fill="#412c1e" d="M 47.605469 19.460938 L 46.398438 18.449219 L 53.550781 49.890625 L 36.257812 49.890625 L 37.617188 51.429688 L 54.871094 51.429688 L 47.605469 19.460938 " fill-opacity="1" fill-rule="nonzero"/><path fill="#412c1e" d="M 57.003906 60.898438 L 55.679688 59.351562 L 60.324219 79.988281 L 61.296875 79.988281 L 57.003906 60.898438 " fill-opacity="1" fill-rule="nonzero"/><path fill="#412c1e" d="M 36.90625 11.546875 L 54.609375 11.546875 L 54.261719 10 L 35.582031 10 L 19.835938 79.988281 L 21.503906 79.988281 L 36.90625 11.546875 " fill-opacity="1" fill-rule="nonzero"/></svg>